<svg width="20" height="22" viewBox="0 0 20 22" fill="none" xmlns="http://www.w3.org/2000/svg">
<path d="M1.93444 15.1227C1.17112 17.1667 0.691529 18.6025 0.495676 19.4302C-0.119148 22.0286 -0.566198 22.6139 1.72532 21.379C4.01684 20.1441 15.1104 14.0271 17.5855 12.6676C20.8118 10.8955 20.8549 11.034 17.4124 9.15241C14.7904 7.71936 3.82689 1.76183 1.72532 0.59207C-0.376249 -0.577689 -0.119148 -0.0575221 0.495676 2.54084C0.694068 3.37929 1.18062 4.82797 1.95534 6.88688C2.49471 8.32031 3.74065 9.37014 5.2448 9.65858L11.6775 10.8921C11.7376 10.9041 11.7767 10.962 11.7646 11.0216C11.7558 11.0651 11.7214 11.0992 11.6775 11.1079L5.23029 12.3402C3.72124 12.6287 2.47194 13.6834 1.93444 15.1227Z" fill="#3F8AE0"/>
</svg>
