<svg width="18" height="17" viewBox="0 0 18 17" fill="none" xmlns="http://www.w3.org/2000/svg">
<path d="M5.42756 13.1683C5.63241 12.9281 5.96582 12.8418 6.2615 12.9526C7.1156 13.2727 8.04308 13.4405 9.00003 13.4405C12.7514 13.4405 15.75 10.8702 15.75 7.7619C15.75 4.65358 12.7514 2.08333 9.00003 2.08333C5.24866 2.08333 2.25003 4.65358 2.25003 7.7619C2.25003 8.83105 2.60238 9.85736 3.26178 10.7502C3.35761 10.8799 3.40905 11.0371 3.40848 11.1984C3.40583 11.9426 3.09463 13.0138 2.47965 14.4612C3.85803 14.3073 4.83073 13.8684 5.42756 13.1683ZM1.82442 16.0127C1.0623 16.0426 0.496142 15.2266 0.816968 14.5169C1.46313 13.0875 1.8191 12.0386 1.89371 11.4135C1.15077 10.32 0.750034 9.0671 0.750034 7.7619C0.750034 3.76942 4.46714 0.583332 9.00003 0.583332C13.5329 0.583332 17.25 3.76942 17.25 7.7619C17.25 11.7544 13.5329 14.9405 9.00003 14.9405C8.0359 14.9405 7.09391 14.7965 6.20607 14.5189C5.19817 15.4489 3.72667 15.9381 1.82442 16.0127Z" fill="white" fill-opacity="0.5"/>
</svg>
