<svg width="15" height="15" viewBox="0 0 15 15" fill="none" xmlns="http://www.w3.org/2000/svg">
<path d="M9.94792 0C11.4363 0 12.1521 0.138213 12.8957 0.535922C13.5701 0.896581 14.1034 1.42991 14.4641 2.10429C14.8618 2.84794 15 3.56366 15 5.05208V9.94792C15 11.4363 14.8618 12.1521 14.4641 12.8957C14.1034 13.5701 13.5701 14.1034 12.8957 14.4641C12.1521 14.8618 11.4363 15 9.94792 15H5.05208C3.56366 15 2.84794 14.8618 2.10429 14.4641C1.42991 14.1034 0.896581 13.5701 0.535922 12.8957C0.138213 12.1521 0 11.4363 0 9.94792V5.05208C0 3.56366 0.138213 2.84794 0.535922 2.10429C0.896581 1.42991 1.42991 0.896581 2.10429 0.535922C2.84794 0.138213 3.56366 0 5.05208 0H9.94792ZM9.94792 1.36364H5.05208C3.76952 1.36364 3.26647 1.46078 2.74738 1.73839C2.31064 1.97196 1.97196 2.31064 1.73839 2.74738C1.46078 3.26647 1.36364 3.76952 1.36364 5.05208V9.94792C1.36364 11.2305 1.46078 11.7335 1.73839 12.2526C1.97196 12.6894 2.31064 13.028 2.74738 13.2616C3.26647 13.5392 3.76952 13.6364 5.05208 13.6364H9.94792C11.2305 13.6364 11.7335 13.5392 12.2526 13.2616C12.6894 13.028 13.028 12.6894 13.2616 12.2526C13.5392 11.7335 13.6364 11.2305 13.6364 9.94792V5.05208C13.6364 3.76952 13.5392 3.26647 13.2616 2.74738C13.028 2.31064 12.6894 1.97196 12.2526 1.73839C11.7335 1.46078 11.2305 1.36364 9.94792 1.36364ZM6.81818 9.88636C7.19474 9.88636 7.5 10.1916 7.5 10.5682C7.5 10.9447 7.19474 11.25 6.81818 11.25H4.09091C3.71435 11.25 3.40909 10.9447 3.40909 10.5682C3.40909 10.1916 3.71435 9.88636 4.09091 9.88636H6.81818ZM10.9091 6.81818C11.2856 6.81818 11.5909 7.12344 11.5909 7.5C11.5909 7.87656 11.2856 8.18182 10.9091 8.18182H4.09091C3.71435 8.18182 3.40909 7.87656 3.40909 7.5C3.40909 7.12344 3.71435 6.81818 4.09091 6.81818H10.9091ZM10.9091 3.75C11.2856 3.75 11.5909 4.05526 11.5909 4.43182C11.5909 4.80838 11.2856 5.11364 10.9091 5.11364H4.09091C3.71435 5.11364 3.40909 4.80838 3.40909 4.43182C3.40909 4.05526 3.71435 3.75 4.09091 3.75H10.9091Z" fill="white" fill-opacity="0.5"/>
</svg>
