<svg width="16" height="18" viewBox="0 0 16 18" fill="none" xmlns="http://www.w3.org/2000/svg">
<path d="M7.99992 0.916667C10.3011 0.916667 12.1666 2.78215 12.1666 5.08333H12.2117C13.3261 5.08333 13.7302 5.19937 14.1376 5.41725C14.545 5.63513 14.8648 5.95487 15.0827 6.36228C15.3006 6.76968 15.4166 7.17379 15.4166 8.28819V12.362C15.4166 14.1028 15.2329 14.7466 14.8879 15.3917C14.5429 16.0367 14.0367 16.543 13.3916 16.888C12.7465 17.233 12.1028 17.4167 10.3619 17.4167H5.63796C3.89707 17.4167 3.25331 17.233 2.60824 16.888C1.96318 16.543 1.45693 16.0367 1.11195 15.3917C0.766969 14.7466 0.583252 14.1028 0.583252 12.362V8.28819C0.583252 7.17379 0.699284 6.76968 0.917168 6.36228C1.13505 5.95487 1.45479 5.63513 1.86219 5.41725C2.2696 5.19937 2.67371 5.08333 3.78811 5.08333H3.83325C3.83325 2.78215 5.69873 0.916667 7.99992 0.916667ZM12.3723 6.58398L3.78811 6.58333C2.99853 6.58333 2.78558 6.62446 2.56959 6.73997C2.42359 6.81805 2.31797 6.92367 2.23989 7.06967C2.12437 7.28567 2.08325 7.49862 2.08325 8.28819V12.362C2.08325 13.7245 2.17536 14.1994 2.43467 14.6843C2.63985 15.0679 2.93198 15.3601 3.31564 15.5652C3.80052 15.8246 4.27545 15.9167 5.63796 15.9167H10.3619C11.7244 15.9167 12.1993 15.8246 12.6842 15.5652C13.0679 15.3601 13.36 15.0679 13.5652 14.6843C13.8245 14.1994 13.9166 13.7245 13.9166 12.362V8.28819C13.9166 7.49862 13.8755 7.28567 13.7599 7.06967C13.6819 6.92367 13.5762 6.81805 13.4302 6.73997C13.2297 6.63271 13.0317 6.58959 12.3723 6.58398ZM11.2883 7.5C11.4594 7.5 11.5783 7.52901 11.6802 7.58348C11.782 7.63795 11.862 7.71788 11.9164 7.81974C11.9709 7.92159 11.9999 8.04053 11.9999 8.21166V8.28834C11.9999 8.45947 11.9709 8.57841 11.9164 8.68026C11.862 8.78212 11.782 8.86205 11.6802 8.91652C11.5783 8.97099 11.4594 9 11.2883 9H11.2116C11.0404 9 10.9215 8.97099 10.8197 8.91652C10.7178 8.86205 10.6379 8.78212 10.5834 8.68026C10.5289 8.57841 10.4999 8.45947 10.4999 8.28834V8.21166C10.4999 8.04053 10.5289 7.92159 10.5834 7.81974C10.6379 7.71788 10.7178 7.63795 10.8197 7.58348C10.9215 7.52901 11.0404 7.5 11.2116 7.5H11.2883ZM4.62159 7.5C4.79273 7.5 4.91166 7.52901 5.01352 7.58348C5.11537 7.63795 5.1953 7.71788 5.24977 7.81974C5.30424 7.92159 5.33325 8.04053 5.33325 8.21166V8.28834C5.33325 8.45947 5.30424 8.57841 5.24977 8.68026C5.1953 8.78212 5.11537 8.86205 5.01352 8.91652C4.91166 8.97099 4.79273 9 4.62159 9H4.54491C4.37378 9 4.25484 8.97099 4.15299 8.91652C4.05114 8.86205 3.9712 8.78212 3.91673 8.68026C3.86226 8.57841 3.83325 8.45947 3.83325 8.28834V8.21166C3.83325 8.04053 3.86226 7.92159 3.91673 7.81974C3.9712 7.71788 4.05114 7.63795 4.15299 7.58348C4.25484 7.52901 4.37378 7.5 4.54491 7.5H4.62159ZM7.99992 2.41667C6.52716 2.41667 5.33325 3.61057 5.33325 5.08333H10.6666C10.6666 3.61057 9.47268 2.41667 7.99992 2.41667Z" fill="white" fill-opacity="0.5"/>
</svg>
