<svg width="14" height="15" viewBox="0 0 14 15" fill="none" xmlns="http://www.w3.org/2000/svg">
<path d="M1.66667 5C2.58714 5 3.33333 5.74619 3.33333 6.66667V13.3333C3.33333 14.2538 2.58714 15 1.66667 15C0.746192 15 0 14.2538 0 13.3333V6.66667C0 5.74619 0.746192 5 1.66667 5ZM11.6667 7.5C12.5871 7.5 13.3333 8.24619 13.3333 9.16667V13.3333C13.3333 14.2538 12.5871 15 11.6667 15C10.7462 15 10 14.2538 10 13.3333V9.16667C10 8.24619 10.7462 7.5 11.6667 7.5ZM6.66667 0C7.58714 0 8.33333 0.746192 8.33333 1.66667V13.3333C8.33333 14.2538 7.58714 15 6.66667 15C5.74619 15 5 14.2538 5 13.3333V1.66667C5 0.746192 5.74619 0 6.66667 0Z" fill="white" fill-opacity="0.5"/>
</svg>
