<svg width="15" height="15" viewBox="0 0 15 15" fill="none" xmlns="http://www.w3.org/2000/svg">
<path d="M4.2333 8.48501C4.73536 8.48501 5.07553 8.5507 5.43209 8.74139C5.78497 8.93012 6.06988 9.21503 6.25861 9.56791C6.42811 9.88485 6.49885 10.1888 6.51247 10.6051L6.51499 10.7667V12.7183C6.51499 13.2204 6.4493 13.5605 6.25861 13.9171C6.06988 14.27 5.78497 14.5549 5.43209 14.7436C5.11515 14.9131 4.81116 14.9839 4.39491 14.9975L4.2333 15H2.28168C1.77963 15 1.43946 14.9343 1.08289 14.7436C0.730014 14.5549 0.445104 14.27 0.256381 13.9171C0.0868778 13.6002 0.0161409 13.2962 0.00251422 12.8799L0 12.7183V10.7667C0 10.2646 0.0656898 9.92447 0.256381 9.56791C0.445104 9.21503 0.730014 8.93012 1.08289 8.74139C1.39984 8.57189 1.70383 8.50115 2.12008 8.48753L2.28168 8.48501H4.2333ZM12.229 8.48501C12.731 8.48501 13.0712 8.5507 13.4278 8.74139C13.7806 8.93012 14.0656 9.21503 14.2543 9.56791C14.4238 9.88485 14.4945 10.1888 14.5081 10.6051L14.5107 10.7667V12.7183C14.5107 13.2204 14.445 13.5605 14.2543 13.9171C14.0656 14.27 13.7806 14.5549 13.4278 14.7436C13.1108 14.9131 12.8068 14.9839 12.3906 14.9975L12.229 15H10.2774C9.7753 15 9.43512 14.9343 9.07856 14.7436C8.72568 14.5549 8.44077 14.27 8.25205 13.9171C8.08255 13.6002 8.01181 13.2962 7.99818 12.8799L7.99567 12.7183V10.7667C7.99567 10.2646 8.06136 9.92447 8.25205 9.56791C8.44077 9.21503 8.72568 8.93012 9.07856 8.74139C9.39551 8.57189 9.6995 8.50115 10.1158 8.48753L10.2774 8.48501H12.229ZM4.2333 9.81762H2.28168C1.95167 9.81762 1.832 9.85198 1.71135 9.91651C1.5907 9.98103 1.49602 10.0757 1.4315 10.1964C1.37504 10.3019 1.34167 10.4068 1.33421 10.6524L1.33261 10.7667V12.7183C1.33261 13.0483 1.36697 13.168 1.4315 13.2886C1.49602 13.4093 1.5907 13.504 1.71135 13.5685C1.81692 13.625 1.92174 13.6583 2.16738 13.6658L2.28168 13.6674H4.2333C4.56332 13.6674 4.68299 13.633 4.80364 13.5685C4.92428 13.504 5.01897 13.4093 5.08349 13.2886C5.13995 13.1831 5.17332 13.0783 5.18078 12.8326L5.18238 12.7183V10.7667C5.18238 10.4367 5.14802 10.317 5.08349 10.1964C5.01897 10.0757 4.92428 9.98103 4.80364 9.91651C4.68299 9.85198 4.56332 9.81762 4.2333 9.81762ZM12.229 9.81762H10.2774C9.94734 9.81762 9.82767 9.85198 9.70702 9.91651C9.58637 9.98103 9.49169 10.0757 9.42716 10.1964C9.37071 10.3019 9.33734 10.4068 9.32988 10.6524L9.32828 10.7667V12.7183C9.32828 13.0483 9.36264 13.168 9.42716 13.2886C9.49169 13.4093 9.58637 13.504 9.70702 13.5685C9.81259 13.625 9.91741 13.6583 10.163 13.6658L10.2774 13.6674H12.229C12.559 13.6674 12.6787 13.633 12.7993 13.5685C12.92 13.504 13.0146 13.4093 13.0792 13.2886C13.1356 13.1831 13.169 13.0783 13.1764 12.8326L13.178 12.7183V10.7667C13.178 10.4367 13.1437 10.317 13.0792 10.1964C13.0146 10.0757 12.92 9.98103 12.7993 9.91651C12.6787 9.85198 12.559 9.81762 12.229 9.81762ZM11.8376 0.0870578C12.1762 0.189685 12.4382 0.351111 12.7363 0.627692L12.8666 0.753441L14.2466 2.13345C14.6016 2.48845 14.7957 2.77544 14.9129 3.16241C15.029 3.54538 15.029 3.9483 14.9129 4.33127C14.8103 4.66987 14.6489 4.93192 14.3723 5.22997L14.2466 5.36023L12.8666 6.74024C12.5115 7.09525 12.2246 7.28933 11.8376 7.40662C11.4546 7.5227 11.0517 7.5227 10.6687 7.40662C10.3301 7.30399 10.0681 7.14257 9.77003 6.86599L9.63977 6.74024L8.25976 5.36023C7.90476 5.00523 7.71067 4.71824 7.59338 4.33127C7.4773 3.9483 7.4773 3.54538 7.59338 3.16241C7.69601 2.82381 7.85743 2.56176 8.13401 2.26371L8.25976 2.13345L9.63977 0.753441C9.99478 0.398433 10.2818 0.204346 10.6687 0.0870578C11.0517 -0.0290193 11.4546 -0.0290193 11.8376 0.0870578ZM4.2333 0.489345C4.73536 0.489345 5.07553 0.555035 5.43209 0.745727C5.78497 0.934449 6.06988 1.21936 6.25861 1.57224C6.4493 1.9288 6.51499 2.26897 6.51499 2.77103V4.72265C6.51499 5.22471 6.4493 5.56488 6.25861 5.92144C6.06988 6.27432 5.78497 6.55923 5.43209 6.74795C5.07553 6.93864 4.73536 7.00433 4.2333 7.00433H2.28168C1.77963 7.00433 1.43946 6.93864 1.08289 6.74795C0.730014 6.55923 0.445104 6.27432 0.256381 5.92144C0.0656898 5.56488 0 5.22471 0 4.72265V2.77103C0 2.26897 0.0656898 1.9288 0.256381 1.57224C0.445104 1.21936 0.730014 0.934449 1.08289 0.745727C1.43946 0.555035 1.77963 0.489345 2.28168 0.489345H4.2333ZM11.0553 1.36238C10.9407 1.3971 10.843 1.44763 10.664 1.61604L10.5821 1.69574L9.20206 3.07574C8.96871 3.3091 8.90838 3.41802 8.8687 3.54895C8.82901 3.67989 8.82901 3.81379 8.8687 3.94473C8.90342 4.0593 8.95395 4.15701 9.12237 4.33597L9.20206 4.41794L10.5821 5.79794C10.8154 6.03129 10.9243 6.09162 11.0553 6.1313C11.1862 6.17099 11.3201 6.17099 11.451 6.1313C11.5656 6.09658 11.6633 6.04605 11.8423 5.87763L11.9243 5.79794L13.3043 4.41794C13.5376 4.18458 13.5979 4.07566 13.6376 3.94473C13.6773 3.81379 13.6773 3.67989 13.6376 3.54895C13.6029 3.43438 13.5524 3.33667 13.384 3.1577L13.3043 3.07574L11.9243 1.69574C11.6909 1.46238 11.582 1.40206 11.451 1.36238C11.3201 1.32269 11.1862 1.32269 11.0553 1.36238ZM4.2333 1.82196H2.28168C1.95167 1.82196 1.832 1.85632 1.71135 1.92084C1.5907 1.98536 1.49602 2.08005 1.4315 2.2007C1.36697 2.32135 1.33261 2.44102 1.33261 2.77103V4.72265C1.33261 5.05266 1.36697 5.17233 1.4315 5.29298C1.49602 5.41363 1.5907 5.50832 1.71135 5.57284C1.832 5.63736 1.95167 5.67172 2.28168 5.67172H4.2333C4.56332 5.67172 4.68299 5.63736 4.80364 5.57284C4.92428 5.50832 5.01897 5.41363 5.08349 5.29298C5.14802 5.17233 5.18238 5.05266 5.18238 4.72265V2.77103C5.18238 2.44102 5.14802 2.32135 5.08349 2.2007C5.01897 2.08005 4.92428 1.98536 4.80364 1.92084C4.68299 1.85632 4.56332 1.82196 4.2333 1.82196Z" fill="white" fill-opacity="0.5"/>
</svg>
