<svg width="16" height="12" viewBox="0 0 16 12" fill="none" xmlns="http://www.w3.org/2000/svg">
<path fill-rule="evenodd" clip-rule="evenodd" d="M3.00004 3.41667C3.06708 3.41667 3.13207 3.40788 3.19392 3.39137C3.50177 4.372 4.41783 5.08334 5.50004 5.08334C6.58225 5.08334 7.49831 4.37199 7.80617 3.39137C7.86801 3.40787 7.933 3.41667 8.00004 3.41667H14.6667C15.0809 3.41667 15.4167 3.08089 15.4167 2.66667C15.4167 2.25246 15.0809 1.91667 14.6667 1.91667H8.00004C7.933 1.91667 7.86801 1.92547 7.80617 1.94198C7.49831 0.961353 6.58225 0.250008 5.50004 0.250008C4.41783 0.250008 3.50177 0.961351 3.19392 1.94197C3.13207 1.92547 3.06708 1.91667 3.00004 1.91667H1.33337C0.91916 1.91667 0.583374 2.25246 0.583374 2.66667C0.583374 3.08089 0.91916 3.41667 1.33337 3.41667H3.00004ZM5.50004 1.75001C4.99378 1.75001 4.58337 2.16041 4.58337 2.66667C4.58337 3.17293 4.99378 3.58334 5.50004 3.58334C6.0063 3.58334 6.41671 3.17293 6.41671 2.66667C6.41671 2.16041 6.0063 1.75001 5.50004 1.75001Z" fill="white" fill-opacity="0.5"/>
<path fill-rule="evenodd" clip-rule="evenodd" d="M0.583374 9.33334C0.583374 8.91912 0.91916 8.58334 1.33337 8.58334H8.00004C8.06709 8.58334 8.13207 8.59214 8.19392 8.60864C8.50177 7.62802 9.41783 6.91667 10.5 6.91667C11.5822 6.91667 12.4983 7.62802 12.8062 8.60864C12.868 8.59214 12.933 8.58334 13 8.58334H14.6667C15.0809 8.58334 15.4167 8.91912 15.4167 9.33334C15.4167 9.74755 15.0809 10.0833 14.6667 10.0833H13C12.933 10.0833 12.868 10.0745 12.8062 10.058C12.4983 11.0387 11.5823 11.75 10.5 11.75C9.41783 11.75 8.50177 11.0387 8.19392 10.058C8.13207 10.0745 8.06709 10.0833 8.00004 10.0833H1.33337C0.91916 10.0833 0.583374 9.74755 0.583374 9.33334ZM9.58337 9.33334C9.58337 8.82708 9.99378 8.41667 10.5 8.41667C11.0063 8.41667 11.4167 8.82708 11.4167 9.33334C11.4167 9.8396 11.0063 10.25 10.5 10.25C9.99378 10.25 9.58337 9.8396 9.58337 9.33334Z" fill="white" fill-opacity="0.5"/>
</svg>
