<svg width="15" height="20" viewBox="0 0 15 10" fill="none" xmlns="http://www.w3.org/2000/svg" style="margin-top: 2.5px;">
<path d="M10.3333 5C11.8627 5 14.6667 5.57143 14.6667 7.85714C14.6667 8.85714 14.4118 9 13.902 9L9.84162 9.00119C9.9471 8.67499 10 8.29235 10 7.85714C10 6.70841 9.57895 5.81233 8.88515 5.14895C9.40693 5.04229 9.91729 5 10.3333 5ZM4.33333 5C5.86275 5 8.66667 5.57143 8.66667 7.85714C8.66667 8.85714 8.41176 9 7.90196 9H0.764706C0.254902 9 0 8.85714 0 7.85714C0 5.57143 2.80392 5 4.33333 5ZM4.33333 0C5.43833 0 6.33333 0.895 6.33333 2C6.33333 3.105 5.43833 4 4.33333 4C3.22833 4 2.33333 3.105 2.33333 2C2.33333 0.895 3.22833 0 4.33333 0ZM10.3333 0C11.4383 0 12.3333 0.895 12.3333 2C12.3333 3.105 11.4383 4 10.3333 4C9.22833 4 8.33333 3.105 8.33333 2C8.33333 0.895 9.22833 0 10.3333 0Z" fill="white" fill-opacity="0.5"/>
</svg>
