<svg width="112" height="112" viewBox="0 0 112 112" fill="none" xmlns="http://www.w3.org/2000/svg">
<path d="M18.2147 32.7948H78.3516C80.6828 32.7948 82.5715 34.6834 82.5715 37.0146V37.0225C82.5715 39.3537 80.6828 41.2424 78.3516 41.2424H18.2147C15.8835 41.2424 13.9949 39.3537 13.9949 37.0225V37.0146C13.9949 34.6755 15.8835 32.7948 18.2147 32.7948Z" fill="#F4F7FC"/>
<path d="M90.5449 32.7948C92.8761 32.7948 94.7647 34.6834 94.7647 37.0146V37.0225C94.7647 39.3537 92.8761 41.2424 90.5449 41.2424H90.537C88.2058 41.2424 86.3171 39.3537 86.3171 37.0225V37.0146C86.3329 34.6755 88.2137 32.7948 90.5449 32.7948Z" fill="#F4F7FC"/>
<path d="M43.431 50.4881H103.568C105.899 50.4881 107.788 52.3768 107.788 54.708V54.7159C107.788 57.0471 105.899 58.9357 103.568 58.9357H43.431C41.0998 58.9357 39.2112 57.0471 39.2112 54.7159V54.708C39.2112 52.3768 41.0998 50.4881 43.431 50.4881Z" fill="#F4F7FC"/>
<path d="M6.12415 67.2648H94.3381C96.6693 67.2648 98.5579 69.1535 98.5579 71.4847V71.4926C98.5579 73.8238 96.6693 75.7124 94.3381 75.7124H6.12415C3.79296 75.7124 1.9043 73.8238 1.9043 71.4926V71.4847C1.9122 69.1535 3.80086 67.2648 6.12415 67.2648Z" fill="#F4F7FC"/>
<path d="M36.153 16.0813H78.3436C80.6748 16.0813 82.5635 17.9699 82.5635 20.3011V20.309C82.5635 22.6402 80.6748 24.5289 78.3436 24.5289H36.153C33.8218 24.5289 31.9331 22.6402 31.9331 20.309V20.3011C31.9331 17.9699 33.8218 16.0813 36.153 16.0813Z" fill="#F4F7FC"/>
<path d="M17.7565 67.4465H70.4098C72.741 67.4465 74.6297 69.3352 74.6297 71.6664V71.6743C74.6297 74.0055 72.741 75.8941 70.4098 75.8941H17.7565C15.4253 75.8941 13.5366 74.0055 13.5366 71.6743V71.6664C13.5445 69.3352 15.4253 67.4465 17.7565 67.4465Z" fill="#F4F7FC"/>
<path d="M73.7683 33.0002H37.9075C37.9075 33.0002 40.5706 31.1036 40.5706 28.7804C40.5706 26.465 37.9075 24.5605 37.9075 24.5605H73.7683C73.7683 24.5605 71.2949 26.4571 71.2949 28.7804C71.2791 31.1036 73.7683 33.0002 73.7683 33.0002Z" fill="#F4F7FC"/>
<path d="M86.0645 67.328H50.2036C50.2036 67.328 52.8667 65.4315 52.8667 63.1081C52.8667 60.7927 50.2036 58.8883 50.2036 58.8883H86.0645C86.0645 58.8883 83.5911 60.7848 83.5911 63.1081C83.5516 65.4315 86.0645 67.328 86.0645 67.328Z" fill="#F4F7FC"/>
<path d="M25.7853 82.3899H83.6384C85.9696 82.3899 87.8582 84.2786 87.8582 86.6098V86.6177C87.8582 88.9488 85.9696 90.8375 83.6384 90.8375H25.7853C23.4541 90.8375 21.5654 88.9488 21.5654 86.6177V86.6098C21.5654 84.2786 23.4541 82.3899 25.7853 82.3899Z" fill="#F4F7FC"/>
<path d="M79.2286 84.0257H43.3599C43.3599 84.0257 46.023 82.1291 46.023 79.8058C46.023 77.4904 43.3599 75.586 43.3599 75.586H79.2207C79.2207 75.586 76.7473 77.4825 76.7473 79.8058C76.7235 82.1291 79.2286 84.0257 79.2286 84.0257Z" fill="#F4F7FC"/>
<path d="M73.7683 50.1878H37.9075C37.9075 50.1878 40.5706 48.2913 40.5706 45.968C40.5706 43.6526 37.9075 41.7481 37.9075 41.7481H73.7683C73.7683 41.7481 71.2949 43.6447 71.2949 45.968C71.2791 48.2913 73.7683 50.1878 73.7683 50.1878Z" fill="#F4F7FC"/>
<path d="M79.7032 7.47563H34.1461C32.8581 7.47563 31.8149 8.51874 31.8149 9.80683V102.573C31.8149 103.861 32.8581 104.904 34.1461 104.904H79.7111C80.9992 104.904 82.0423 103.861 82.0423 102.573V9.80683C82.0344 8.51874 80.9913 7.47563 79.7032 7.47563Z" fill="#636AA3"/>
<path d="M78.9525 103.868H34.9047C33.7115 103.868 32.7395 102.896 32.7395 101.703V12.4778C32.7395 11.2845 33.7115 10.3126 34.9047 10.3126H78.9525C80.1457 10.3126 81.1177 11.2845 81.1177 12.4778V101.703C81.1177 102.896 80.1457 103.868 78.9525 103.868Z" fill="#2E3155"/>
<path d="M57.2367 101.98C59.6153 101.98 61.5435 100.052 61.5435 97.6731C61.5435 95.2945 59.6153 93.3663 57.2367 93.3663C54.8581 93.3663 52.9299 95.2945 52.9299 97.6731C52.9299 100.052 54.8581 101.98 57.2367 101.98Z" fill="#636AA3"/>
<path d="M57.2368 101.6C59.4059 101.6 61.1643 99.8421 61.1643 97.673C61.1643 95.5039 59.4059 93.7455 57.2368 93.7455C55.0677 93.7455 53.3093 95.5039 53.3093 97.673C53.3093 99.8421 55.0677 101.6 57.2368 101.6Z" fill="#2E3155"/>
<path d="M78.3045 19.827H35.6318V90.6478H78.3045V19.827Z" fill="white"/>
<path d="M84.1599 9.7515H30.2501C30.013 9.7515 29.8154 9.55394 29.8154 9.31687V2.55246C29.8154 2.31539 30.013 2.11783 30.2501 2.11783H84.1599C84.397 2.11783 84.5946 2.31539 84.5946 2.55246V9.31687C84.5946 9.55394 84.4049 9.7515 84.1599 9.7515Z" fill="#5ABEFC"/>
<path d="M31.7991 16.832C32.4233 18.2307 30.0289 22.0001 26.789 21.9527C23.3198 21.8974 21.2336 17.4879 21.8421 16.6503C22.0001 16.429 22.3636 16.4448 22.577 16.4527C28.2588 16.6345 31.2222 15.5439 31.7991 16.832Z" fill="#DDAB14"/>
<path d="M41.7562 16.6502C42.3805 18.207 40.2784 21.9527 36.7461 21.9527C33.2137 21.9527 31.1117 18.207 31.736 16.6502C32.6763 14.3032 40.8158 14.3032 41.7562 16.6502Z" fill="#43A9D1"/>
<path d="M51.7132 16.6502C52.3375 18.207 50.2354 21.9527 46.7031 21.9527C43.1707 21.9527 41.0687 18.207 41.693 16.6502C42.6334 14.3032 50.7728 14.3032 51.7132 16.6502Z" fill="#DCAB13"/>
<path d="M61.6699 16.6502C62.2942 18.207 60.1922 21.9685 56.6598 21.9527C53.1512 21.9369 51.065 18.207 51.6892 16.6502C52.6296 14.3032 60.7374 14.3112 61.6699 16.6502Z" fill="#43A8D0"/>
<path d="M71.8482 16.6502C72.4646 18.2386 70.1334 22.1029 66.5062 21.9527C63.0845 21.8105 60.9667 18.207 61.5988 16.6502C62.5629 14.2558 70.9394 14.3033 71.8482 16.6502Z" fill="#DCAB13"/>
<path d="M81.7657 16.6503C82.39 18.2149 80.2801 21.9843 76.7556 21.9527C73.2864 21.9211 71.2239 18.207 71.8482 16.6503C72.7886 14.3112 80.8332 14.3191 81.7657 16.6503Z" fill="#43A8D0"/>
<path d="M91.8648 16.6503C92.5049 17.6301 90.2844 21.8737 86.8943 21.9527C83.5832 22.0317 81.0781 18.0964 81.734 16.6503C82.0975 15.8442 83.2355 16.2946 90.8613 16.3421C91.1853 16.3421 91.6673 16.3421 91.8648 16.6503Z" fill="#DDAB14"/>
<path d="M31.799 16.6502C28.4563 16.6502 25.1215 16.6502 21.7788 16.6502C24.4577 14.319 27.1366 11.9879 29.8155 9.65666C32.3443 9.65666 34.8651 9.65666 37.3939 9.65666C35.5289 11.9879 33.664 14.319 31.799 16.6502Z" fill="#FFD96B"/>
<path d="M41.756 16.6502C38.4133 16.6502 35.0785 16.6502 31.7358 16.6502C33.6245 14.319 35.5053 11.9879 37.3939 9.65666C39.9859 9.65666 42.5779 9.66456 45.1699 9.66456C44.0319 11.9879 42.894 14.319 41.756 16.6502Z" fill="#59BEFC"/>
<path d="M51.6972 16.6503C48.3624 16.6503 45.0276 16.6503 41.7007 16.6503C42.8623 14.3191 44.0161 11.9958 45.1777 9.66458C47.6907 9.66458 50.2115 9.67248 52.7245 9.67248C52.3768 11.9958 52.037 14.327 51.6972 16.6503Z" fill="#FED96B"/>
<path d="M61.6541 16.6502C58.3194 16.6502 54.9846 16.6502 51.6577 16.6502C52.0133 14.327 52.3689 12.0037 52.7245 9.67247C55.3481 9.67247 57.9796 9.67247 60.6031 9.67247C60.9508 11.9958 61.2985 14.327 61.6541 16.6502Z" fill="#5ABEFC"/>
<path d="M71.9034 16.6502C68.4738 16.6502 65.0441 16.6502 61.6145 16.6502C61.2747 14.327 60.9428 12.0037 60.603 9.67247C63.2187 9.67247 65.8423 9.67247 68.458 9.67247C69.6038 11.9958 70.7496 14.327 71.9034 16.6502Z" fill="#FFD96B"/>
<path d="M81.7499 16.6502C78.4704 16.6502 75.1988 16.6502 71.9193 16.6502C70.7656 14.327 69.6039 12.0037 68.4502 9.67247C71.0185 9.67247 73.5788 9.67247 76.1471 9.67247C78.02 11.9958 79.8849 14.327 81.7499 16.6502Z" fill="#5ABEFC"/>
<path d="M91.8648 16.6502C88.4825 16.6502 85.1082 16.6502 81.726 16.6502C79.869 14.327 78.004 12.0037 76.147 9.67247C78.7627 9.67247 81.3704 9.67247 83.9861 9.67247C86.6097 11.9958 89.2412 14.327 91.8648 16.6502Z" fill="#FFD96B"/>
<path d="M51.2152 78.1621H38.7532C38.3265 78.1621 37.9788 77.8144 37.9788 77.3877C37.9788 76.961 38.3265 76.6133 38.7532 76.6133H51.2152C51.642 76.6133 51.9897 76.961 51.9897 77.3877C51.9897 77.8144 51.6499 78.1621 51.2152 78.1621Z" fill="#D1D1D1"/>
<path d="M61.9781 78.1147H55.0556C54.621 78.1147 54.2654 77.7591 54.2654 77.3245C54.2654 76.8899 54.621 76.5343 55.0556 76.5343H61.9781C62.4127 76.5343 62.7683 76.8899 62.7683 77.3245C62.7762 77.7591 62.4206 78.1147 61.9781 78.1147Z" fill="#D1D1D1"/>
<path d="M75.8231 78.1147H65.6607C65.2893 78.1147 64.989 77.8144 64.989 77.443V77.2059C64.989 76.8345 65.2893 76.5343 65.6607 76.5343H75.831C76.2024 76.5343 76.5027 76.8345 76.5027 77.2059V77.443C76.4948 77.8065 76.1945 78.1147 75.8231 78.1147Z" fill="#D1D1D1"/>
<path d="M39.7883 81.4337H38.6425C38.279 81.4337 37.9866 81.1413 37.9866 80.7778V80.5408C37.9866 80.1772 38.279 79.8849 38.6425 79.8849H39.7883C40.1518 79.8849 40.4442 80.1772 40.4442 80.5408V80.7778C40.4442 81.1413 40.1518 81.4337 39.7883 81.4337Z" fill="#D1D1D1"/>
<path d="M47.3587 81.4337H42.7279C42.3644 81.4337 42.072 81.1413 42.072 80.7778V80.5408C42.072 80.1772 42.3644 79.8849 42.7279 79.8849H47.3587C47.7222 79.8849 48.0146 80.1772 48.0146 80.5408V80.7778C48.0146 81.1413 47.7222 81.4337 47.3587 81.4337Z" fill="#D1D1D1"/>
<path d="M59.2122 81.4337H50.7804C50.4169 81.4337 50.1245 81.1413 50.1245 80.7778V80.5408C50.1245 80.1772 50.4169 79.8849 50.7804 79.8849H59.2122C59.5757 79.8849 59.8681 80.1772 59.8681 80.5408V80.7778C59.876 81.1413 59.5757 81.4337 59.2122 81.4337Z" fill="#D1D1D1"/>
<path d="M69.0192 81.4574H62.5235C62.1521 81.4574 61.8518 81.1571 61.8518 80.7857V80.5486C61.8518 80.1772 62.1521 79.8769 62.5235 79.8769H69.0192C69.3906 79.8769 69.6909 80.1772 69.6909 80.5486V80.7857C69.6909 81.1571 69.3906 81.4574 69.0192 81.4574Z" fill="#D1D1D1"/>
<path d="M75.8229 81.4574H72.7093C72.3379 81.4574 72.0376 81.1571 72.0376 80.7857V80.5486C72.0376 80.1772 72.3379 79.8769 72.7093 79.8769H75.8229C76.1943 79.8769 76.4946 80.1772 76.4946 80.5486V80.7857C76.4946 81.1571 76.1943 81.4574 75.8229 81.4574Z" fill="#D1D1D1"/>
<path d="M49.1605 84.4603H38.6425C38.279 84.4603 37.9866 84.1679 37.9866 83.8044V83.5674C37.9866 83.2038 38.279 82.9115 38.6425 82.9115H49.1605C49.524 82.9115 49.8164 83.2038 49.8164 83.5674V83.8044C49.8164 84.16 49.524 84.4603 49.1605 84.4603Z" fill="#D1D1D1"/>
<path d="M54.7159 84.4603H52.4479C52.0844 84.4603 51.792 84.1679 51.792 83.8044V83.5674C51.792 83.2038 52.0844 82.9115 52.4479 82.9115H54.7159C55.0794 82.9115 55.3717 83.2038 55.3717 83.5674V83.8044C55.3717 84.16 55.0794 84.4603 54.7159 84.4603Z" fill="#D1D1D1"/>
<path d="M66.2057 84.5472H57.6553C57.2839 84.5472 56.9836 84.2469 56.9836 83.8755V83.6385C56.9836 83.2671 57.2839 82.9668 57.6553 82.9668H66.2057C66.5771 82.9668 66.8774 83.2671 66.8774 83.6385V83.8755C66.8774 84.2469 66.5771 84.5472 66.2057 84.5472Z" fill="#D1D1D1"/>
<path d="M75.8229 84.5472H69.7855C69.4141 84.5472 69.1138 84.2469 69.1138 83.8755V83.6385C69.1138 83.2671 69.4141 82.9668 69.7855 82.9668H75.8229C76.1943 82.9668 76.4946 83.2671 76.4946 83.6385V83.8755C76.4946 84.2469 76.1943 84.5472 75.8229 84.5472Z" fill="#D1D1D1"/>
<path d="M57.2525 65.3919C66.8846 65.3919 74.693 57.5835 74.693 47.9514C74.693 38.3193 66.8846 30.511 57.2525 30.511C47.6204 30.511 39.812 38.3193 39.812 47.9514C39.812 57.5835 47.6204 65.3919 57.2525 65.3919Z" fill="#6CC0FF"/>
<path d="M60.192 42.4435C60.2948 42.6964 59.9629 42.8703 59.9392 43.3523C59.9154 44.024 60.5397 44.3401 60.4133 44.593C60.2631 44.9012 58.983 44.9802 58.4377 44.2058C58.0189 43.6131 58.1374 42.6411 58.7143 42.2697C59.2358 41.9378 60.0419 42.1037 60.192 42.4435Z" fill="white"/>
<path d="M59.2709 33.7109C59.5048 32.7753 58.9324 31.8263 57.9925 31.5913C57.0526 31.3564 56.101 31.9244 55.8671 32.8601C55.6332 33.7958 56.2056 34.7448 57.1455 34.9797C58.0854 35.2147 59.037 34.6466 59.2709 33.7109Z" fill="white"/>
<path d="M55.0633 42.7754C54.8183 43.0678 55.3083 43.4708 55.0791 44.1267C54.7867 44.9881 53.6014 45.3279 53.3169 45.4069C52.9692 45.5096 52.8428 45.4859 52.3212 45.5649C51.4994 45.6835 50.7012 45.7941 50.1085 46.1023C48.3463 47.019 48.0539 49.8796 47.9907 50.3933C47.967 50.6146 47.9512 50.7884 47.9512 50.9465C47.9354 51.713 47.9512 52.2741 47.9591 52.3689C48.0539 53.8703 46.0072 58.7224 47.0108 59.5996C48.2278 60.6664 53.9254 55.9329 54.3126 54.7159C54.36 54.5816 54.7946 53.9652 55.253 53.0564C55.253 53.0564 56.7149 51.5233 57.4498 50.5988C57.4498 50.5988 58.8722 48.8839 59.9628 46.3789C60.2393 45.7309 60.6186 44.7589 60.2314 44.3638C60.1129 44.2453 59.9549 44.2136 59.8916 44.2057C58.2796 43.9213 55.6086 42.1195 55.0633 42.7754Z" fill="white"/>
<path d="M60.3107 41.9536C60.5715 42.6411 59.1728 44.3085 57.5686 44.3164C56.075 44.3243 54.7079 42.9018 54.9134 42.2143C55.0951 41.5901 56.5729 41.5189 57.5607 41.4715C58.509 41.4162 60.0815 41.3451 60.3107 41.9536Z" fill="#EDEDED"/>
<path d="M61.6936 37.9708C61.9623 40.8631 59.8524 44.19 57.5054 44.1584C55.1742 44.1347 53.1749 40.8157 53.4514 37.9708C53.6648 35.7977 55.2848 33.0555 57.5765 33.0555C59.8603 33.0555 61.4881 35.7898 61.6936 37.9708Z" fill="white"/>
<path d="M53.8544 38.8005C53.562 38.7768 53.2459 39.0139 53.1431 39.2826C53.0167 39.5987 53.238 39.7962 53.4276 40.4205C53.6884 41.3056 53.4592 41.6217 53.8227 42.4514C54.0598 42.9888 54.2337 43.0362 54.3048 43.0362C54.5893 43.0599 54.8342 42.6253 54.8896 42.5226C55.5929 41.274 54.7157 38.8638 53.8544 38.8005Z" fill="white"/>
<path d="M61.0298 38.7294C61.3459 38.6978 61.6778 38.9507 61.8122 39.2273C62.1125 39.8279 61.338 40.223 61.2906 41.5032C61.2748 41.9694 61.3538 42.3803 61.0693 42.7517C61.0219 42.815 60.8402 43.0441 60.6031 43.0362C60.3028 43.0283 60.0973 42.649 60.0183 42.4989C59.3861 41.3451 60.1131 38.8164 61.0298 38.7294Z" fill="white"/>
<path d="M69.7223 63.5428C70.1569 63.7008 70.4414 64.1908 70.718 64.6649C70.9235 65.0126 71.3028 65.6764 71.2001 66.5378C71.121 67.1463 70.8365 67.5651 70.6627 67.8022C70.1174 68.5766 69.3904 68.9085 68.774 69.193C68.5054 69.3115 67.3595 69.8094 65.6052 69.8726C64.7992 69.8963 64.6727 69.8094 63.1634 69.6909C62.6813 69.6513 62.2941 69.6355 59.8681 69.5644C57.2682 69.4933 55.9722 69.4538 55.5771 69.4617C52.8745 69.4696 51.5232 69.4696 51.0886 69.5328C50.7093 69.5881 50.1561 69.683 49.4528 69.5328C49.0182 69.438 48.8522 69.3194 48.4018 69.2641C47.7775 69.1851 47.3271 69.3115 47.0268 69.3748C46.0548 69.5723 44.8694 69.4459 44.0002 69.0745C43.7236 68.9559 42.2775 68.3396 41.8429 66.846C41.748 66.5062 41.4635 65.5263 41.9298 64.9415C42.3486 64.4279 43.3601 64.2066 49.4844 65.9925C52.6612 66.9171 52.9694 67.1463 54.7395 67.4861C56.4938 67.8259 57.9794 68.1104 59.955 67.9523C61.3616 67.8338 63.5427 67.6599 65.6684 66.2928C67.7704 64.9494 68.7029 63.1793 69.7223 63.5428Z" fill="#EF7B18"/>
<path d="M68.6398 62.8711C68.7978 62.9343 69.833 63.3215 69.7935 63.7167C69.7698 63.9537 69.3905 64.0406 68.861 64.3488C68.1103 64.7756 67.7784 65.2102 67.3912 65.5737C66.3481 66.5457 64.6649 67.2253 63.6692 67.6204C62.4364 68.1183 60.4608 68.9085 57.8451 68.9243C54.8581 68.9401 52.4794 67.9286 51.5075 67.5019C50.3537 66.9961 49.6425 66.5299 47.7143 65.795C45.6123 64.9889 44.8221 64.9889 44.261 65.0442C42.8623 65.1865 41.9693 65.8819 41.756 65.5974C41.5979 65.392 42.0958 64.6333 42.5699 64.1513C42.9571 63.7483 43.5261 63.1635 44.34 63.0529C45.2014 62.9343 45.4938 63.4559 47.6353 64.3172C47.7854 64.3805 48.2991 64.5859 48.9945 64.8783C49.1921 64.9652 49.3896 65.0442 49.5872 65.1391C50.3932 65.5105 53.8466 66.5773 55.348 66.7907C60.3265 67.494 65.6369 61.749 68.6398 62.8711Z" fill="#E04B13"/>
<path d="M67.7627 61.67C67.8259 61.9465 67.9444 62.2942 68.2447 62.5708C68.466 62.7763 68.6636 62.8237 68.6794 62.9738C68.7189 63.2504 68.0867 63.5507 67.8812 63.6534C66.7828 64.1829 67.494 64.1197 65.3525 65.3604C63.6298 66.364 62.7605 66.8618 61.6463 67.2016C61.3381 67.2964 59.7734 67.7548 57.6635 67.6599C56.1146 67.5888 55.0478 67.249 52.9616 66.5615C50.1958 65.6527 50.3538 65.3841 47.6986 64.5306C45.5176 63.8273 44.2453 63.6376 44.2532 63.2188C44.2611 62.8632 45.1936 62.5234 45.9917 62.4681C47.2877 62.3812 48.3071 63.0213 48.5284 63.1635C51.5945 65.0364 58.1455 64.9099 58.5248 64.902C60.3187 64.8546 63.7009 64.4279 67.7627 61.67Z" fill="#F1970C"/>
<path d="M67.1225 57.4184C67.2648 57.5528 66.925 58.0111 67.0988 58.912C67.1858 59.3545 67.3043 59.4731 67.5019 60.0341C67.5572 60.1922 67.8654 61.1247 67.8496 61.7173C67.8338 62.152 67.6362 62.8632 66.0083 64.0406C65.147 64.6649 63.606 65.7634 61.1168 66.3086C60.4372 66.4588 58.264 66.8855 55.5298 66.3639C54.8265 66.2296 53.4594 65.6922 50.7489 64.6254C48.0147 63.5507 45.9758 62.7525 46.047 62.5155C46.0707 62.4444 46.2919 62.4286 46.4263 62.4127C46.8214 62.3811 46.9953 62.555 47.3272 62.4839C47.501 62.4444 47.6195 62.3653 47.6511 62.3495C48.5204 61.907 55.19 63.7483 58.2008 63.527C63.0133 63.1872 66.6168 56.9522 67.1225 57.4184Z" fill="#EF7B1A"/>
<path d="M66.1821 50.2669C66.2769 50.338 66.4745 50.8042 66.4508 51.065C66.4429 51.1361 66.4271 51.2073 66.4271 51.2073C66.4034 51.3258 66.3559 51.4048 66.3243 51.5787C66.3006 51.6972 66.2927 51.792 66.3006 51.879C66.3164 52.1713 66.348 52.3847 66.3955 52.685C66.4824 53.2461 66.4113 53.3172 66.5298 53.6333C66.6088 53.8387 66.6325 53.7992 66.7353 54.0442C66.9012 54.4314 66.9091 54.6606 67.0039 55.1821C67.0751 55.5852 67.1541 55.7748 67.2015 55.9645C67.3674 56.652 67.1778 57.5924 66.5219 59.1175C65.9292 60.5004 65.6289 61.1958 65.1706 61.7332C63.6059 63.5823 61.3933 63.9221 60.8401 63.9933C60.2553 64.0723 59.6627 64.0328 58.4852 63.9538C56.6914 63.8352 55.5376 63.6298 54.297 63.4401C50.1719 62.8158 47.6906 62.8237 47.6748 62.4049C47.6748 62.3259 47.8091 62.2389 48.0857 62.0651C48.2991 61.9308 48.5441 61.8517 49.034 61.6937C49.3501 61.591 49.437 61.5751 49.516 61.5672C49.6662 61.5514 49.7136 61.5672 49.8242 61.5277C49.9665 61.4724 49.9981 61.4092 50.1403 61.3618C50.2431 61.3302 50.2905 61.3381 50.3853 61.3302C50.5829 61.3223 50.6224 61.1958 50.8832 61.1168C51.4284 60.9588 51.9579 60.9904 52.0053 60.9904C52.9615 61.0852 65.4393 49.7532 66.1821 50.2669Z" fill="#DE4C12"/>
<path d="M63.7403 45.8178C63.8273 45.8968 63.9379 46.1655 64.2935 46.4421C64.6649 46.7266 64.8388 46.6555 65.1312 46.853C65.8345 47.3193 65.9214 48.4335 65.9293 48.5836C65.9609 48.963 65.8977 49.2237 66.0162 49.7611C66.0794 50.0377 66.1585 50.2352 66.1743 50.2748C66.7669 51.9026 61.6462 56.1383 61.6462 56.1383C60.3502 57.3948 59.1254 58.2008 58.2482 58.7066C57.2525 59.2677 56.4148 59.6075 55.5061 59.971C55.2058 60.0895 53.9809 60.5795 52.2977 61.022C51.4284 61.2512 50.3063 61.6779 50.1404 61.3934C50.1088 61.3302 50.085 61.1958 50.1404 61.0931C50.2036 60.9667 50.3379 60.9272 50.4406 60.8797C50.4406 60.8797 50.3616 60.6664 51.0333 60.453C52.195 60.0658 62.7604 44.9327 63.7403 45.8178Z" fill="#EE7C19"/>
<path d="M60.2552 44.1979C59.5993 44.348 59.4097 44.7036 57.5605 47.3509C55.0555 50.9306 54.5023 51.5786 54.281 52.5822C54.2415 52.764 54.0756 53.6095 53.6014 54.621C53.4355 54.9766 53.3328 55.2058 53.1352 55.4745C52.4793 56.3991 52.0131 56.1778 51.4994 56.9364C51.0727 57.5686 50.7329 58.6907 50.7171 58.7539C50.6934 58.8251 50.6381 59.0147 50.5037 59.2202C50.2983 59.5205 50.0375 59.6785 49.9664 59.718C49.3737 60.0973 48.7731 61.4644 49.0181 61.7094C49.4843 62.1757 53.475 59.236 56.4621 56.1699C57.4973 55.1031 57.3234 55.3085 58.1611 54.3207C59.2753 53.0011 60.0023 51.9026 61.8673 49.5794C61.8673 49.5794 62.4283 48.9076 63.2897 47.4615C63.8271 46.5686 63.914 46.2762 63.9219 46.0944C63.9219 46.0549 63.9219 46.0312 63.914 46.0154C63.835 45.2331 61.8357 43.8423 60.2552 44.1979Z" fill="#FBA91A"/>
<path d="M47.0266 58.1929C46.4972 58.7856 46.8133 59.9236 46.8686 60.129C46.9634 60.4688 47.0662 60.8244 47.3585 61.0615C47.809 61.4171 48.5281 61.346 49.7609 60.8797C51.8866 60.0737 53.3169 58.9437 53.4829 58.8172C55.6402 57.0787 56.8018 56.3043 56.9994 54.9688C57.0547 54.5815 57.0231 53.9256 56.952 52.6139C56.8651 51.0018 56.7544 51.1598 56.8255 50.6541C56.8888 50.1878 57.0152 49.7295 56.7465 49.366C56.6517 49.2395 56.462 49.0657 56.304 49.1052C56.059 49.1684 56.0116 49.7216 55.9642 50.1878C55.8852 51.0808 56.0669 51.1361 55.9405 51.7604C55.9326 51.8078 55.8457 52.1318 55.6797 52.7956C55.656 52.9062 55.6086 53.088 55.577 53.3409C55.5454 53.6096 55.5533 53.7992 55.5533 53.8545C55.5375 54.4867 54.1388 55.1821 53.4908 55.4824C52.179 56.0909 52.179 55.9329 51.4757 56.3359C50.2982 57.0076 50.4405 57.3869 49.587 57.7267C48.3147 58.2403 47.5561 57.6003 47.0266 58.1929Z" fill="white"/>
<path d="M66.0795 58.106C66.5616 58.6987 66.2771 59.8366 66.2217 60.0421C66.1348 60.3819 66.0479 60.7375 65.7792 60.9745C65.3683 61.3301 64.7124 61.259 63.5982 60.7928C61.6621 59.9867 60.3661 58.8567 60.216 58.7303C58.2562 56.9918 57.2052 56.2173 57.0234 54.8818C56.9681 54.4946 57.0076 53.8387 57.0708 52.5269C57.1499 50.9149 57.2526 51.0729 57.1894 50.5672C57.134 50.1009 57.0155 49.6426 57.2605 49.2791C57.3474 49.1526 57.5213 48.9788 57.6556 49.0183C57.8769 49.0815 57.9243 49.6347 57.9638 50.1009C58.0349 50.9939 57.869 51.0492 57.9875 51.6735C57.9954 51.7209 58.0744 52.0449 58.2246 52.7087C58.2483 52.8193 58.2957 53.0011 58.3194 53.254C58.351 53.5226 58.3431 53.7123 58.3431 53.7676C58.3589 54.3998 59.6312 55.0952 60.2239 55.3955C61.4171 56.004 61.4171 55.8459 62.0572 56.2489C63.124 56.9206 62.9976 57.2999 63.772 57.6397C64.9021 58.1613 65.5975 57.5133 66.0795 58.106Z" fill="white"/>
</svg>
