<svg width="24" height="24" viewBox="0 0 24 24" fill="none" xmlns="http://www.w3.org/2000/svg">
<path d="M14.043 5.00003L12.043 7.00003L6 7.00003C5.48716 7.00003 5.06449 7.38607 5.00673 7.88341L5 8.00003V18C5 18.5523 5.44772 19 6 19H16C16.5523 19 17 18.5523 17 18V11.942L19 9.94203V18C19 19.6569 17.6569 21 16 21H6C4.34315 21 3 19.6569 3 18V8.00003C3 6.34317 4.34315 5.00003 6 5.00003L14.043 5.00003ZM16.718 5.15203L18.84 7.27303L12.2883 13.8251C11.8249 14.2885 11.2547 14.631 10.6278 14.8224L8.8884 15.3534C8.78275 15.3856 8.67097 15.3261 8.63872 15.2205C8.6271 15.1824 8.6271 15.1417 8.63872 15.1037L9.16972 13.3643C9.36109 12.7374 9.70355 12.1672 10.167 11.7038L16.718 5.15203ZM20.8427 3.14936C21.4285 3.73515 21.4285 4.6849 20.8427 5.27068L19.78 6.33203L17.659 4.21103L18.7214 3.14936C19.3072 2.56358 20.2569 2.56358 20.8427 3.14936Z" fill="white"/>
</svg>
