<svg width="25" height="25" viewBox="0 0 25 25" fill="none" xmlns="http://www.w3.org/2000/svg">
<path d="M18.1506 19.4133L5.58659 6.84928C4.32704 8.38845 3.57136 10.3559 3.57136 12.4999C3.57136 17.431 7.56882 21.4285 12.4999 21.4285C14.6439 21.4285 16.6114 20.6728 18.1506 19.4133ZM19.4133 18.1506C20.6728 16.6114 21.4285 14.6439 21.4285 12.4999C21.4285 7.56882 17.431 3.57136 12.4999 3.57136C10.3559 3.57136 8.38845 4.32704 6.84928 5.58659L19.4133 18.1506ZM12.4999 23.2142C6.58259 23.2142 1.78564 18.4173 1.78564 12.4999C1.78564 6.58259 6.58259 1.78564 12.4999 1.78564C18.4173 1.78564 23.2142 6.58259 23.2142 12.4999C23.2142 18.4173 18.4173 23.2142 12.4999 23.2142Z" fill="#E64646"/>
</svg>
