<svg width="16" height="16" viewBox="0 0 16 16" fill="none" xmlns="http://www.w3.org/2000/svg">
<path d="M8.00008 2C9.84103 2 11.3334 3.49238 11.3334 5.33333L11.3327 6.66667H11.6242C12.2185 6.66667 12.434 6.72855 12.6513 6.84476C12.8686 6.96096 13.0391 7.13149 13.1553 7.34877C13.2715 7.56605 13.3334 7.78158 13.3334 8.37592V12.2907C13.3334 12.8851 13.2715 13.1006 13.1553 13.3179C13.0391 13.5352 12.8686 13.7057 12.6513 13.8219C12.434 13.9381 12.2185 14 11.6242 14H4.376C3.78166 14 3.56613 13.9381 3.34885 13.8219C3.13157 13.7057 2.96104 13.5352 2.84484 13.3179C2.72863 13.1006 2.66675 12.8851 2.66675 12.2907V8.37592C2.66675 7.78158 2.72863 7.56605 2.84484 7.34877C2.96104 7.13149 3.13157 6.96096 3.34885 6.84476C3.56613 6.72855 3.78166 6.66667 4.376 6.66667H4.66608L4.66675 5.33333C4.66675 3.49238 6.15913 2 8.00008 2ZM8.00008 3.33333C6.89551 3.33333 6.00008 4.22876 6.00008 5.33333L5.99941 6.66667H9.99941L10.0001 5.33333C10.0001 4.22876 9.10465 3.33333 8.00008 3.33333Z" fill="#99A2AD"/>
</svg>
