<svg width="25" height="25" viewBox="0 0 25 25" fill="none" xmlns="http://www.w3.org/2000/svg">
<path d="M12.4999 1.78564C18.4173 1.78564 23.2142 6.58259 23.2142 12.4999C23.2142 18.4173 18.4173 23.2142 12.4999 23.2142C6.58259 23.2142 1.78564 18.4173 1.78564 12.4999C1.78564 6.58259 6.58259 1.78564 12.4999 1.78564ZM12.4999 3.12493C7.32226 3.12493 3.12493 7.32226 3.12493 12.4999C3.12493 17.6776 7.32226 21.8749 12.4999 21.8749C17.6776 21.8749 21.8749 17.6776 21.8749 12.4999C21.8749 7.32226 17.6776 3.12493 12.4999 3.12493ZM16.4907 9.34785C16.7522 9.08634 17.1762 9.08634 17.4377 9.34785C17.6992 9.60936 17.6992 10.0334 17.4377 10.2949L11.1877 16.5449C10.9262 16.8064 10.5022 16.8064 10.2407 16.5449L7.11571 13.4199C6.85419 13.1584 6.85419 12.7344 7.11571 12.4728C7.37722 12.2113 7.80121 12.2113 8.06272 12.4728L10.7142 15.1243L16.4907 9.34785Z" fill="url(#paint0_linear)"/>
<defs>
<linearGradient id="paint0_linear" x1="-8.92864" y1="12.4999" x2="12.4999" y2="33.9285" gradientUnits="userSpaceOnUse">
<stop stop-color="#50C750"/>
<stop offset="1" stop-color="#32B332"/>
</linearGradient>
</defs>
</svg>
