<svg width="44" height="44" viewBox="0 0 44 44" fill="none" xmlns="http://www.w3.org/2000/svg">
<path fill-rule="evenodd" clip-rule="evenodd" d="M31.5401 0.431724L29.9725 0.672339C26.6385 1.19756 24.4883 1.4 21.9992 1.4C19.6889 1.4 17.6761 1.22382 14.7795 0.788432L12.4665 0.432952L11.746 0.32931C6.62862 -0.382859 5.09396 -0.028079 2.86075 2.30168C-1.19155 6.52918 -0.804917 19.5313 3.17436 29.2177C6.87842 38.2342 14.0987 44 21.9992 44C29.8997 44 37.12 38.2342 40.8241 29.2177C44.8034 19.5313 45.19 6.52918 41.1377 2.30168L40.7836 1.94338C38.6353 -0.150655 36.9787 -0.373557 31.5401 0.431724ZM12.019 3.39982L14.3287 3.75482C17.3703 4.21201 19.53 4.4 21.9992 4.4C24.5105 4.4 26.7037 4.20673 29.8652 3.72522L31.9874 3.39863L32.6326 3.30486C36.6577 2.73251 37.4563 2.88971 38.6703 4.07286L38.9885 4.39492C41.9777 7.51367 41.6251 19.3729 38.0492 28.0774C34.7754 36.0467 28.573 40.9995 21.9992 40.9995C15.4255 40.9995 9.22311 36.0467 5.94926 28.0774C2.37337 19.3729 2.02072 7.51367 5.02632 4.37812L5.22775 4.17192C6.60702 2.79117 7.41049 2.71745 12.019 3.39982ZM27.8838 29.4228C27.5641 28.6585 26.6854 28.2981 25.9212 28.6178C24.537 29.1968 23.0415 29.4992 21.5 29.4992C19.9585 29.4992 18.463 29.1967 17.0788 28.6178C16.3146 28.2981 15.4359 28.6585 15.1162 29.4227C14.7965 30.187 15.1569 31.0657 15.9212 31.3854C17.6707 32.1172 19.5595 32.4992 21.5 32.4992C23.4405 32.4992 25.3294 32.1172 27.0788 31.3854C27.8431 31.0657 28.2035 30.187 27.8838 29.4228ZM14.5 14C16.4965 14 18.3107 15.0586 19.2951 16.743C19.7131 17.4583 19.4721 18.377 18.7568 18.795C18.0837 19.1883 17.2303 18.998 16.7837 18.378L16.7049 18.2567C16.2544 17.4857 15.422 17 14.5 17C13.6395 17 12.857 17.4231 12.3902 18.1064L12.2951 18.2567C11.8771 18.972 10.9584 19.2129 10.2432 18.795C9.52792 18.377 9.28694 17.4583 9.70493 16.743C10.6893 15.0586 12.5035 14 14.5 14ZM34.2951 16.743C33.3107 15.0586 31.4965 14 29.5 14C27.5035 14 25.6893 15.0586 24.7049 16.743C24.2869 17.4583 24.5279 18.377 25.2432 18.795C25.9584 19.2129 26.8771 18.972 27.2951 18.2567L27.3902 18.1064C27.857 17.4231 28.6395 17 29.5 17C30.422 17 31.2544 17.4857 31.7049 18.2567L31.7837 18.378C32.2303 18.998 33.0837 19.1883 33.7568 18.795C34.4721 18.377 34.7131 17.4583 34.2951 16.743Z" fill="white"/>
</svg>
