<svg width="20" height="22" viewBox="0 0 20 22" fill="none" xmlns="http://www.w3.org/2000/svg">
<path d="M16.1961 0.0194138C16.699 0.119989 17.0377 0.581426 16.9969 1.08043L16.9806 1.19611L16.019 5.9998L19 5.99999C19.5523 5.99999 20 6.44771 20 6.99999C20 7.51283 19.614 7.9355 19.1166 7.99327L19 7.99999L15.619 7.9998L14.419 13.9998L17 14C17.5523 14 18 14.4477 18 15C18 15.5128 17.614 15.9355 17.1166 15.9933L17 16L14.019 15.9998L12.9806 21.1961C12.8723 21.7377 12.3454 22.0889 11.8039 21.9806C11.301 21.88 10.9623 21.4186 11.0031 20.9196L11.0194 20.8039L11.98 15.9998H6.019L4.98058 21.1961C4.87227 21.7377 4.34544 22.0889 3.80388 21.9806C3.30101 21.88 2.96225 21.4186 3.00315 20.9196L3.01942 20.8039L3.98 15.9998L1 16C0.447715 16 0 15.5523 0 15C0 14.4872 0.38604 14.0645 0.883379 14.0067L1 14L4.38 13.9998L5.58 7.9998L3 7.99999C2.44772 7.99999 2 7.55228 2 6.99999C2 6.48716 2.38604 6.06449 2.88338 6.00672L3 5.99999L5.98 5.9998L7.01942 0.803878C7.12773 0.262318 7.65456 -0.0888981 8.19612 0.0194138C8.69899 0.119989 9.03775 0.581426 8.99685 1.08043L8.98058 1.19611L8.019 5.9998H13.98L15.0194 0.803878C15.1277 0.262318 15.6546 -0.0888981 16.1961 0.0194138ZM13.58 7.9998H7.619L6.419 13.9998H12.38L13.58 7.9998Z" fill="white"/>
</svg>
