<svg width="41" height="42" viewBox="0 0 41 42" fill="none" xmlns="http://www.w3.org/2000/svg">
<path d="M20.5092 0C29.2849 0 36 7.35464 36 16.6617L35.9908 20.3159C35.9914 21.0856 36.4355 21.8796 37.586 23.2337C37.7228 23.3948 37.5813 23.2308 38.1303 23.8659C40.1934 26.2529 41 27.6116 41 29.6765C41 30.0516 40.9885 30.3068 40.9377 30.6536C40.8615 31.1742 40.7122 31.6793 40.4655 32.1645C39.5458 33.9735 37.5604 35 34.5 35H28.918L28.8694 35.1822C27.6208 39.6197 24.7494 42 20.5 42C16.1932 42 13.3018 39.5549 12.0809 35.0011L6.5 35C3.34985 35 1.34651 33.9474 0.468435 32.0798C0.250399 31.616 0.119717 31.1359 0.0537462 30.6382C0.00962834 30.3055 0 30.0614 0 29.6765C0 27.6124 0.805099 26.2537 2.86425 23.8669C3.41215 23.2318 3.27092 23.3958 3.4075 23.2348C4.55689 21.8795 5 21.0852 5 20.3142V16.6579C5 7.35811 11.7306 0 20.5092 0ZM25.786 35.0009H15.214C16.1567 37.7534 17.8532 39 20.5 39C23.1468 39 24.8433 37.7534 25.786 35.0009ZM20.5092 3C13.4501 3 8 8.95822 8 16.6579V20.3142C8 22.0148 7.27773 23.3095 5.69549 25.1752C5.61035 25.2755 5.52133 25.3795 5.41384 25.5043C5.27396 25.6665 5.27396 25.6665 5.13575 25.8266C3.53865 27.6778 3 28.5868 3 29.6765C3 30.197 3.03995 30.4983 3.18334 30.8033C3.52123 31.522 4.43097 32 6.5 32H34.5C36.5045 32 37.4259 31.5236 37.7912 30.805C37.954 30.4848 38 30.1705 38 29.6765C38 28.5876 37.4604 27.6786 35.8605 25.8276C35.7221 25.6675 35.7221 25.6675 35.5819 25.5054C35.4742 25.3806 35.3851 25.2766 35.2998 25.1762C33.7145 23.3103 32.9908 22.0155 32.9908 20.3142L33 16.6579C33 8.95365 27.5641 3 20.5092 3Z" fill="#99A2AD"/>
</svg>
