<svg width="16" height="15" viewBox="0 0 16 15" fill="none" xmlns="http://www.w3.org/2000/svg">
<path d="M4.27147 0C4.43553 0 4.56155 0.0301684 4.66747 0.0868182C4.7734 0.143468 4.85653 0.226599 4.91318 0.332525C4.96983 0.438451 5 0.564466 5 0.728528V0.999H11V0.728528C11 0.564466 11.0302 0.438451 11.0868 0.332525C11.1435 0.226599 11.2266 0.143468 11.3325 0.0868182C11.4385 0.0301684 11.5645 0 11.7285 0H11.7715C11.9355 0 12.0615 0.0301684 12.1675 0.0868182C12.2734 0.143468 12.3565 0.226599 12.4132 0.332525C12.4698 0.438451 12.5 0.564466 12.5 0.728528L12.5013 1.00712C13.3379 1.03577 13.8231 1.15424 14.3248 1.42256C14.8629 1.71034 15.2897 2.13713 15.5774 2.67524C15.8911 3.26176 16 3.82561 16 4.95486V11.0451C16 12.1744 15.8911 12.7382 15.5774 13.3248C15.2897 13.8629 14.8629 14.2897 14.3248 14.5774C13.7382 14.8911 13.1744 15 12.0451 15H3.95486C2.82561 15 2.26176 14.8911 1.67524 14.5774C1.13714 14.2897 0.71034 13.8629 0.422556 13.3248C0.108886 12.7382 0 12.1744 0 11.0451V4.95486C0 3.82561 0.108886 3.26176 0.422556 2.67524C0.71034 2.13713 1.13714 1.71034 1.67524 1.42256C2.17714 1.15414 2.66244 1.03568 3.49964 1.00709L3.5 0.728528C3.5 0.564466 3.53017 0.438451 3.58682 0.332525C3.64347 0.226599 3.7266 0.143468 3.83253 0.0868182C3.93845 0.0301684 4.06447 0 4.22853 0H4.27147ZM14.5 7H1.5V11.0451C1.5 11.9479 1.56371 12.2779 1.74528 12.6174C1.89326 12.8941 2.10594 13.1067 2.38264 13.2547C2.72214 13.4363 3.05206 13.5 3.95486 13.5H12.0451C12.9479 13.5 13.2779 13.4363 13.6174 13.2547C13.8941 13.1067 14.1067 12.8941 14.2547 12.6174C14.4363 12.2779 14.5 11.9479 14.5 11.0451V7ZM11 2.499H5V2.77147C5 2.93553 4.96983 3.06155 4.91318 3.16747C4.85653 3.2734 4.7734 3.35653 4.66747 3.41318C4.56155 3.46983 4.43553 3.5 4.27147 3.5H4.22853C4.06447 3.5 3.93845 3.46983 3.83253 3.41318C3.7266 3.35653 3.64347 3.2734 3.58682 3.16747C3.53017 3.06155 3.5 2.93553 3.5 2.77147L3.49845 2.50727C2.92639 2.52845 2.65766 2.5982 2.38264 2.74528C2.10594 2.89326 1.89326 3.10594 1.74528 3.38264C1.56371 3.72214 1.5 4.05206 1.5 4.95486V5.5H14.5V4.95486C14.5 4.05206 14.4363 3.72214 14.2547 3.38264C14.1067 3.10594 13.8941 2.89326 13.6174 2.74528C13.3425 2.59828 13.0739 2.52853 12.5026 2.5073L12.5 2.77147C12.5 2.93553 12.4698 3.06155 12.4132 3.16747C12.3565 3.2734 12.2734 3.35653 12.1675 3.41318C12.0615 3.46983 11.9355 3.5 11.7715 3.5H11.7285C11.5645 3.5 11.4385 3.46983 11.3325 3.41318C11.2266 3.35653 11.1435 3.2734 11.0868 3.16747C11.0302 3.06155 11 2.93553 11 2.77147V2.499Z" fill="white"/>
</svg>
