<svg width="15" height="12" viewBox="0 0 15 12" fill="none" xmlns="http://www.w3.org/2000/svg">
<path d="M15 0.75C15 0.335786 14.6585 0 14.2561 0H0.743852C0.333034 0 0 0.332899 0 0.75C0 1.16421 0.341479 1.5 0.743852 1.5H14.2561C14.667 1.5 15 1.1671 15 0.75ZM15 5.75C15 5.33579 14.6585 5 14.2561 5H0.743852C0.333034 5 0 5.3329 0 5.75C0 6.16421 0.341479 6.5 0.743852 6.5H14.2561C14.667 6.5 15 6.1671 15 5.75ZM0 10.75C0 11.1642 0.337462 11.5 0.755134 11.5H9.74487C10.1619 11.5 10.5 11.1671 10.5 10.75C10.5 10.3358 10.1625 10 9.74487 10H0.755134C0.338085 10 0 10.3329 0 10.75Z" fill="white"/>
</svg>
