<svg width="50" height="50" viewBox="0 0 50 50" fill="none" xmlns="http://www.w3.org/2000/svg">
<path d="M25.0002 3.57143C30.9175 3.57143 35.7145 8.36837 35.7145 14.2857L35.7182 17.8977C37.2232 17.991 38.1834 18.2544 39.1732 18.7837C40.3574 19.417 41.2974 20.3571 41.9308 21.5413C42.6186 22.8275 42.8574 24.0636 42.8574 26.5104V37.7753C42.8574 40.2221 42.6186 41.4582 41.9308 42.7444C41.2974 43.9286 40.3574 44.8687 39.1732 45.502C37.887 46.1899 36.6509 46.4286 34.2041 46.4286H15.7963C13.3496 46.4286 12.1135 46.1899 10.8272 45.502C9.64302 44.8687 8.70297 43.9286 8.06965 42.7444C7.38177 41.4582 7.14307 40.2221 7.14307 37.7753V26.5104C7.14307 24.0636 7.38177 22.8275 8.06965 21.5413C8.70297 20.3571 9.64302 19.417 10.8272 18.7837C11.8174 18.2541 12.778 17.9908 14.284 17.8976L14.2859 14.2857C14.2859 8.36837 19.0829 3.57143 25.0002 3.57143ZM34.2041 21.4286H15.7963C13.8887 21.4286 13.2096 21.5597 12.5115 21.9331C11.9497 22.2335 11.5194 22.6638 11.219 23.2256C10.8456 23.9237 10.7145 24.6028 10.7145 26.5104V37.7753C10.7145 39.6829 10.8456 40.362 11.219 41.0601C11.5194 41.6219 11.9497 42.0522 12.5115 42.3526C13.2096 42.726 13.8887 42.8571 15.7963 42.8571H34.2041C36.1117 42.8571 36.7908 42.726 37.4889 42.3526C38.0507 42.0522 38.481 41.6219 38.7814 41.0601C39.1548 40.362 39.2859 39.6829 39.2859 37.7753V26.5104C39.2859 24.6028 39.1548 23.9237 38.7814 23.2256C38.481 22.6638 38.0507 22.2335 37.4889 21.9331C36.7908 21.5597 36.1117 21.4286 34.2041 21.4286ZM25.0002 26.7857C25.9864 26.7857 26.7859 27.5852 26.7859 28.5714V33.9286C26.7859 34.9148 25.9864 35.7143 25.0002 35.7143C24.014 35.7143 23.2145 34.9148 23.2145 33.9286V28.5714C23.2145 27.5852 24.014 26.7857 25.0002 26.7857ZM25.0002 7.14285C21.0553 7.14285 17.8574 10.3408 17.8574 14.2857V17.8571H32.1431V14.2857C32.1431 10.3408 28.9451 7.14285 25.0002 7.14285Z" fill="white"/>
</svg>
