<svg width="24" height="24" viewBox="0 0 24 24" fill="none" xmlns="http://www.w3.org/2000/svg">
<path d="M16.8722 2C18.6553 2 19.3018 2.18565 19.9537 2.53427C20.6055 2.88288 21.1171 3.39446 21.4657 4.04631C21.8143 4.69816 22 5.34473 22 7.12777V16.8722C22 18.6553 21.8143 19.3018 21.4657 19.9537C21.1171 20.6055 20.6055 21.1171 19.9537 21.4657C19.3018 21.8143 18.6553 22 16.8722 22H7.12777C5.34473 22 4.69816 21.8143 4.04631 21.4657C3.39446 21.1171 2.88288 20.6055 2.53427 19.9537C2.18565 19.3018 2 18.6553 2 16.8722V7.12777C2 5.34473 2.18565 4.69816 2.53427 4.04631C2.88288 3.39446 3.39446 2.88288 4.04631 2.53427C4.69816 2.18565 5.34473 2 7.12777 2H16.8722ZM18.2931 7.66838C17.9062 7.29523 17.2934 7.29479 16.9059 7.6674L10 14.3077L7.09151 11.5142C6.70499 11.1429 6.09451 11.1424 5.70734 11.513L5.7 11.52C5.69076 11.5288 5.68171 11.5379 5.67285 11.5471C5.31683 11.9172 5.32823 12.5058 5.69831 12.8618L9.30704 16.3334C9.69407 16.7057 10.3061 16.7058 10.6933 16.3337L18.2989 9.02382C18.3074 9.0156 18.3158 9.00721 18.3241 8.99867C18.683 8.6265 18.6722 8.03386 18.3 7.67499L18.2931 7.66838Z" fill="#3F8AE0"/>
</svg>
